<svg xmlns="http://www.w3.org/2000/svg" xmlns:xlink="http://www.w3.org/1999/xlink" viewBox="0 0 211.16 211.16"><defs><style>.cls-1{fill-rule:evenodd;fill:url(#linear-gradient);}.cls-2{fill:url(#linear-gradient-2);}.cls-3{fill:url(#linear-gradient-3);}.cls-4{fill:url(#linear-gradient-4);}.cls-5{fill:url(#linear-gradient-5);}.cls-6{fill:url(#linear-gradient-6);}.cls-7{fill:url(#linear-gradient-7);}.cls-8{fill:url(#linear-gradient-8);}.cls-9{fill:url(#linear-gradient-9);}.cls-10{fill:url(#linear-gradient-10);}.cls-11{fill:url(#linear-gradient-11);}.cls-12{fill:url(#linear-gradient-12);}.cls-13{fill:url(#linear-gradient-13);}.cls-14{fill:url(#linear-gradient-14);}.cls-15{fill:url(#linear-gradient-15);}.cls-16{fill:url(#linear-gradient-16);}.cls-17{fill:url(#linear-gradient-17);}.cls-18{fill:url(#linear-gradient-18);}.cls-19{fill:url(#linear-gradient-19);}.cls-20{fill:url(#linear-gradient-20);}.cls-21{fill:url(#linear-gradient-21);}.cls-22{fill:url(#linear-gradient-22);}.cls-23{fill:url(#linear-gradient-23);}.cls-24{fill:url(#linear-gradient-24);}</style><linearGradient id="linear-gradient" x1="86.14" y1="9.45" x2="86.14" y2="282.87" gradientUnits="userSpaceOnUse"><stop offset="0" stop-color="#c27c37"/><stop offset="1" stop-color="#80370c"/></linearGradient><linearGradient id="linear-gradient-2" x1="152.5" y1="-27.4" x2="152.5" y2="213.27" xlink:href="#linear-gradient"/><linearGradient id="linear-gradient-3" x1="105.58" y1="-31.49" x2="105.58" y2="46.83" gradientUnits="userSpaceOnUse"><stop offset="0" stop-color="#e6b264"/><stop offset="1" stop-color="#ad6629"/></linearGradient><linearGradient id="linear-gradient-4" x1="47.73" y1="3.99" x2="63.22" y2="111.3" xlink:href="#linear-gradient-3"/><linearGradient id="linear-gradient-5" x1="2124.72" y1="-16.16" x2="2140.21" y2="91.16" gradientTransform="matrix(-1, 0, 0, 1, 2290.89, 0)" xlink:href="#linear-gradient-3"/><linearGradient id="linear-gradient-6" x1="105.58" y1="107.52" x2="105.58" y2="15.97" gradientUnits="userSpaceOnUse"><stop offset="0" stop-color="#f5f0ea"/><stop offset="1" stop-color="#c2ab8a"/></linearGradient><linearGradient id="linear-gradient-7" x1="120.9" y1="132.67" x2="45.17" y2="195.78" gradientUnits="userSpaceOnUse"><stop offset="0" stop-color="#f5f0ea"/><stop offset="1" stop-color="#c2bcb1"/></linearGradient><linearGradient id="linear-gradient-8" x1="157.32" y1="132.27" x2="108.53" y2="161.3" xlink:href="#linear-gradient-7"/><linearGradient id="linear-gradient-9" x1="92.81" y1="196.1" x2="141.95" y2="182.98" gradientUnits="userSpaceOnUse"><stop offset="0" stop-color="#564a41"/><stop offset="1" stop-color="#cac4bb"/></linearGradient><linearGradient id="linear-gradient-10" x1="82.59" y1="249.24" x2="97.1" y2="166.05" xlink:href="#linear-gradient-9"/><linearGradient id="linear-gradient-11" x1="105.58" y1="137.29" x2="105.58" y2="158.66" gradientUnits="userSpaceOnUse"><stop offset="0" stop-color="#3f3934"/><stop offset="1" stop-color="#605a55"/></linearGradient><linearGradient id="linear-gradient-12" x1="139.12" y1="152.51" x2="95.86" y2="176.57" gradientUnits="userSpaceOnUse"><stop offset="0" stop-color="#423e3b"/><stop offset="0.16" stop-color="#353230"/><stop offset="0.71" stop-color="#0f0e0d"/><stop offset="1"/></linearGradient><linearGradient id="linear-gradient-13" x1="113.98" y1="152.76" x2="77.68" y2="184.3" xlink:href="#linear-gradient-12"/><linearGradient id="linear-gradient-14" x1="105.82" y1="38.82" x2="291.81" y2="220.06" gradientUnits="userSpaceOnUse"><stop offset="0" stop-color="#914012"/><stop offset="1" stop-color="#2d0d00"/></linearGradient><linearGradient id="linear-gradient-15" x1="75.94" y1="-18.13" x2="230.39" y2="163.69" gradientUnits="userSpaceOnUse"><stop offset="0" stop-color="#ae672a"/><stop offset="1" stop-color="#75300f"/></linearGradient><linearGradient id="linear-gradient-16" x1="2071.78" y1="38.82" x2="2257.78" y2="220.06" gradientTransform="matrix(-1, 0, 0, 1, 2177.13, 0)" xlink:href="#linear-gradient-14"/><linearGradient id="linear-gradient-17" x1="2041.9" y1="-18.13" x2="2196.35" y2="163.69" gradientTransform="matrix(-1, 0, 0, 1, 2177.13, 0)" xlink:href="#linear-gradient-15"/><linearGradient id="linear-gradient-18" x1="105.59" y1="196.94" x2="105.59" y2="227.49" gradientUnits="userSpaceOnUse"><stop offset="0" stop-color="#2d2017"/><stop offset="0.13" stop-color="#382b22"/><stop offset="0.35" stop-color="#554a40"/><stop offset="0.65" stop-color="#847b71"/><stop offset="1" stop-color="#c2bcb1"/></linearGradient><linearGradient id="linear-gradient-19" x1="52.26" y1="121.53" x2="52.26" y2="48.53" gradientUnits="userSpaceOnUse"><stop offset="0" stop-color="#75300d"/><stop offset="1" stop-color="#080d09"/></linearGradient><linearGradient id="linear-gradient-20" x1="51.86" y1="87.36" x2="51.86" y2="59.72" gradientUnits="userSpaceOnUse"><stop offset="0" stop-color="#7d3b00"/><stop offset="1" stop-color="#120503"/></linearGradient><linearGradient id="linear-gradient-21" x1="44.94" y1="65.41" x2="50.77" y2="74.39" gradientUnits="userSpaceOnUse"><stop offset="0" stop-color="#ffeb8a"/><stop offset="0.18" stop-color="#caba6d"/><stop offset="0.48" stop-color="#756b3f"/><stop offset="0.73" stop-color="#36311d"/><stop offset="0.91" stop-color="#0f0e08"/><stop offset="1"/></linearGradient><linearGradient id="linear-gradient-22" x1="158.8" y1="121.53" x2="158.8" y2="48.53" xlink:href="#linear-gradient-19"/><linearGradient id="linear-gradient-23" x1="159.2" y1="87.36" x2="159.2" y2="59.72" xlink:href="#linear-gradient-20"/><linearGradient id="linear-gradient-24" x1="151.91" y1="68.45" x2="158.24" y2="74.78" xlink:href="#linear-gradient-21"/></defs><g id="Layer_2" data-name="Layer 2"><g id="Layer_1-2" data-name="Layer 1"><path class="cls-1" d="M47.06,0h69.76a47.06,47.06,0,0,1,47.06,47.06v117a47.06,47.06,0,0,1-47.06,47.06H47.06A47.19,47.19,0,0,1,36.7,210c-21-4.72-28.3-23.49-28.3-45.92v-117C8.4,21.07,21.07,0,47.06,0Z"/><path class="cls-2" d="M164.1,0H105.6V211.16h58.5a47.2,47.2,0,0,0,11.6-1.44c20.38-5.16,23.7-23.63,23.7-45.62v-117C199.4,21.07,190.09,0,164.1,0Z"/><path class="cls-3" d="M163.7.6H47.47A46.73,46.73,0,0,0,.73,47.34v3C.73,23.27,21.65,2.3,47.47,2.3H163.7c25.81,0,46.74,20.33,46.74,48.05v-3A46.74,46.74,0,0,0,163.7.6Z"/><path class="cls-4" d="M81.31,34.78s-52.22-.76-52.22,42c31.82,0,46,3.34,46,3.34l6.25-14.5Z"/><path class="cls-5" d="M129.51,34.78s52.56-.76,52.56,42c-32,0-46.27,3.34-46.27,3.34l-6.29-14.5Z"/><path class="cls-6" d="M118.94,55.91c0-28.44-13.32-52.15-13.36-52.08S92.22,27.47,92.22,55.91v43l13.29.91h.14l13.29-.91Z"/><path class="cls-7" d="M48.83,155v56.13h56.9V81.27S48.83,116.58,48.83,155Z"/><path class="cls-8" d="M162.33,155v56.13H105.44V81.27S162.33,116.58,162.33,155Z"/><polygon class="cls-9" points="134.31 206.87 105.37 192.16 105.37 170.89 123.15 170.89 134.31 206.87"/><polygon class="cls-10" points="76.79 206.87 105.73 192.16 105.73 170.89 87.95 170.89 76.79 206.87"/><path class="cls-11" d="M135.27,156.62l-3.38-13.44-26.31-4.29-26.3,4.29-3.39,13.44,29.69,9.92Z"/><path class="cls-12" d="M105.44,152.39s24.4,3.25,29.82,4.23c0,22.71-29.82,32.54-29.82,32.54Z"/><path class="cls-13" d="M105.72,152.39s-24.4,3.25-29.82,4.23c0,22.54,29.82,32.54,29.82,32.54Z"/><path class="cls-14" d="M164.93,0c19.66,7.14,28,30.72,28,51V79.92c0,42.82-24.6,45.57-24.6,88.87V211a46.81,46.81,0,0,0,11.21-2.4c18.41-6.38,24.41-23.87,24.41-44.46v-117C203.94,21.35,190.53.46,164.93,0Z"/><path class="cls-15" d="M174.21,1.1c18.56,10.49,24,33.38,24,49.95V79.92c0,42.82-23.09,45.57-23.09,88.87v41.07a47.06,47.06,0,0,0,36.08-45.76v-117A47.07,47.07,0,0,0,174.21,1.1Z"/><path class="cls-16" d="M46.24,0c-19.67,7.14-28,30.72-28,51V79.92c0,42.82,24.6,45.57,24.6,88.87V211a46.91,46.91,0,0,1-11.21-2.4c-18.41-6.38-24.4-23.87-24.4-44.46v-117C7.23,21.35,20.63.46,46.24,0Z"/><path class="cls-17" d="M37,1.1C18.4,11.59,13,34.48,13,51.05V79.92c0,42.82,23.09,45.57,23.09,88.87v41.07A47.07,47.07,0,0,1,0,164.1v-117A47.07,47.07,0,0,1,37,1.1Z"/><polygon class="cls-18" points="142.7 211.16 105.59 192.21 68.48 211.16 142.7 211.16"/><path d="M131.39,169.49H123s.21-8.17-6.32-8.17c-6.73,0-8,15,1,15C124.66,176.3,131.39,169.49,131.39,169.49Z"/><path d="M80,169.49h8.42s-.21-8.17,6.32-8.17c6.73,0,8,15-1.06,15C86.71,176.3,80,169.49,80,169.49Z"/><path class="cls-19" d="M75.53,79.42s-8.1-18.53-25-18.53S29,76,29,76s7.19,21.3,21.31,21.3C64,97.25,70.44,91,70.44,91Z"/><path d="M68.7,80.67S63.89,63.91,50.52,63.91,35,75.48,35,75.48,47.74,101.42,68.7,80.67Z"/><path class="cls-20" d="M61.48,84.1A13.16,13.16,0,0,0,65,76.6c-2-4.28-6.45-11-14.3-11-6.23,0-9.62,2.91-11.43,5.59a13.06,13.06,0,0,0,0,7.5C42.65,83.46,50.43,91.3,61.48,84.1Z"/><path d="M59.63,73.9A7.68,7.68,0,1,1,52,66.22,7.68,7.68,0,0,1,59.63,73.9Z"/><path class="cls-21" d="M52,66.18a14.76,14.76,0,0,0-1.51-.09,13.63,13.63,0,0,0-9.09,3A5.54,5.54,0,1,0,52,66.18Z"/><path class="cls-22" d="M135.52,79.42s8.1-18.53,25-18.53S182.07,76,182.07,76s-7.18,21.3-21.31,21.3c-13.66,0-20.14-6.25-20.14-6.25Z"/><path d="M142.36,80.67s4.81-16.76,18.17-16.76,15.52,11.57,15.52,11.57S163.31,101.42,142.36,80.67Z"/><path class="cls-23" d="M149.58,84.1a13.1,13.1,0,0,1-3.53-7.5c2-4.28,6.44-11,14.3-11,6.22,0,9.61,2.91,11.43,5.59a13.37,13.37,0,0,1,.56,3.82,13.15,13.15,0,0,1-.53,3.68C168.41,83.46,160.63,91.3,149.58,84.1Z"/><path d="M151.43,73.9a7.68,7.68,0,1,0,7.68-7.68A7.68,7.68,0,0,0,151.43,73.9Z"/><path class="cls-24" d="M149.19,73.48A5.53,5.53,0,0,0,159,69.94a5.45,5.45,0,0,0-1.13-3.32A16.24,16.24,0,0,0,149.19,73.48Z"/></g></g></svg>